<?xml version="1.0" encoding="UTF-8" standalone="no"?>
<!-- Created with Inkscape (http://www.inkscape.org/) -->

<svg
   width="74.422546mm"
   height="62.7407mm"
   viewBox="0 0 74.422546 62.7407"
   version="1.1"
   id="svg1"
   xml:space="preserve"
   xmlns="http://www.w3.org/2000/svg"
   xmlns:svg="http://www.w3.org/2000/svg"><defs
     id="defs1" /><g
     id="layer4"
     transform="translate(-54.209015,-120.6249)"><path
       style="display:inline;fill:#000000;stroke-width:0.264583"
       d="m 81.904178,183.3656 -2.10011,-1.57508 h -2.36262 l -2.231364,0.78754 -3.543929,0.13126 -1.968852,-0.78754 -3.54393,-2.23137 -2.493878,-1.44382 -2.231363,-2.10011 -1.706338,-3.15016 -2.100106,-1.96885 -0.525026,-2.10011 -2.625135,-1.18131 0.131257,-1.31256 -0.393769,-2.36262 0.918795,-1.96886 0.656286,-2.88764 -0.262515,-2.62513 v -1.8376 l -1.312566,-1.57508 0.787541,-2.49388 1.312566,-2.75639 1.968849,-2.75639 2.231363,-2.36262 1.312569,-2.36262 2.625133,-0.91879 2.756392,-1.70634 1.181309,-2.62514 -0.656283,-3.54393 0.525025,-1.96885 1.050055,-0.78754 2.362621,-1.05005 1.837592,-1.96885 1.312569,-1.96885 1.706337,0.39377 1.050052,0.78754 1.706338,0.13125 3.018903,0.26252 1.575081,-1.44382 2.756389,-1.31257 1.968852,-0.9188 h 2.362621 l 2.887646,-0.13126 h 2.100107 l 2.36262,-0.65628 1.837598,-0.39377 h 2.1001 l 1.57508,0.26251 1.05006,1.44383 0.13126,1.05005 0.26251,1.31257 -0.9188,1.44382 -0.52503,0.65628 1.8376,1.31257 1.31256,0.65629 0.39377,0.91879 -0.65628,0.65629 -1.44382,0.78754 -0.78754,0.65628 -0.13126,1.31257 -0.39377,0.65628 -0.65628,0.52503 -0.52503,0.52502 1.05005,1.57508 -0.13125,1.44383 -0.39377,1.05005 -0.26252,1.05005 0.52503,1.31257 0.26251,0.78754 -1.31256,0.9188 0.9188,0.52503 0.52502,0.91879 0.13126,1.05006 1.31256,0.52502 1.31257,0.39377 0.78754,0.65629 0.13126,0.91879 h 1.18131 l 1.05005,0.39377 1.05006,0.52503 1.05005,0.39377 1.57508,-0.52503 1.31257,-0.65628 13.51944,7.35037 0.26251,6.82535 -1.18131,0.39377 -0.65629,0.39377"
       id="AF_ter1" /></g></svg>
