<?xml version="1.0" encoding="UTF-8" standalone="no"?>
<!-- Created with Inkscape (http://www.inkscape.org/) -->

<svg
   width="41.255154mm"
   height="81.814194mm"
   viewBox="0 0 41.255154 81.814194"
   version="1.1"
   id="svg1"
   xml:space="preserve"
   xmlns="http://www.w3.org/2000/svg"
   xmlns:svg="http://www.w3.org/2000/svg"><defs
     id="defs1" /><g
     id="layer2"
     transform="translate(54.852158,-225.11673)"><path
       style="fill:#000000;stroke-width:0.264583"
       d="m -41.301561,301.13015 c 2.041874,1.94908 0.417655,1.11376 2.134687,2.04186 1.71703,0.92814 3.062812,0.92814 3.062812,0.92814 l 0.7425,0.23204 0.04641,0.46405 -1.252969,0.64968 -1.067342,-0.0464 -0.139218,0.27844 -1.020937,-0.13922 -0.510469,0.32485 -1.949064,-0.32485 0.464064,1.25299 -0.185627,0.13919 -1.624219,-1.34577 -0.324842,-0.0464 -0.139218,0.69609 -1.02094,-0.41764 -0.603279,-1.11377 -0.232032,-0.1856 -0.139218,1.39218 -0.696095,-0.41767 -0.37125,-1.11374 h -0.556874 l -0.7425,0.13923 -0.417658,-0.5569 0.37125,-0.32483 0.510468,0.0464 0.27844,-0.18563 -0.37125,-1.02095 0.835311,0.18563 0.649689,0.51046 -0.09281,-0.9281 0.04641,-0.41767 0.464064,-0.0464 0.37125,0.27845 0.04641,0.55687 -0.04641,0.51048 0.603281,0.18561 0.04641,-0.69609 -0.324845,-0.64969 0.37125,-0.37123 0.556876,0.0464 v -0.6033 h -0.556876 l -0.510469,0.0928 -0.556873,-0.37124 -0.139219,-0.37126 0.464061,-0.18561 0.7425,-0.27845 0.185626,-0.41767 -0.37125,-0.37124 -0.556876,-0.0464 -0.881719,0.46405 -0.278437,0.46408 -0.278437,0.46405 0.09281,0.64969 -0.09281,0.64968 -0.696095,0.27845 -0.37125,0.0928 -0.556874,-0.13922 -0.510468,0.13922 0.04641,0.51046 0.417658,0.60328 0.139219,0.37126 -0.649687,-0.0464 -0.417658,-0.55687 -0.556874,-0.27845 -0.835314,-0.0464 -0.464063,-0.18563 -0.324842,-0.60328 -0.185627,-0.37123 0.09281,-0.41767 0.696095,0.27844 0.696092,0.41765 0.603282,0.0928 0.37125,-0.41764 0.04641,-0.46408 0.139218,-0.18561 0.324845,-0.27844 0.417656,0.0928 0.417658,0.37124 0.417655,-0.18561 0.139219,-0.41767 V 299.97 l -0.417656,-0.46408 -0.278437,0.27845 -0.510468,0.27845 -0.696095,-0.0464 -0.603282,0.0928 -0.464061,0.27843 -0.232031,0.69609 h -0.696095 l 0.139218,-0.64969 0.324845,-0.41764 0.556874,-0.32486 0.556876,0.13923 0.835311,-0.32486 0.510469,-0.1856 0.324844,-0.41767 -0.278436,-0.32483 h -0.835314 l -0.835313,0.1856 h -0.464061 l -0.139218,0.37126 -0.696095,0.27845 -0.464064,-0.0928 -0.232028,-0.46408 -0.04641,-0.41765 0.417658,-0.23204 h 0.510468 l 0.603279,-0.13922 0.417658,-0.27842 0.278437,-0.27845 -0.09281,-0.51046 -0.417655,-0.13922 -0.232032,0.0928 -0.556874,0.41765 -0.556876,0.0464 -0.464064,-0.18561 -0.37125,-0.0928 0.417658,-0.46408 0.464064,-0.23201 0.139218,-0.41767 -0.27844,-0.18563 -0.83531,0.0928 -0.7425,-0.0928 h -0.696095 l 0.139218,-0.69609 -0.37125,-0.41765 0.696095,-0.0464 0.37125,-0.51046 0.417655,-0.46408 -0.139218,-0.60327 0.324845,-0.60328 0.324842,-0.60328 -0.04641,-0.69609 -0.232032,-0.18563 -0.464063,0.0464 v 0.41764 l 0.04641,0.64969 -0.09281,0.37126 -0.464063,0.27845 -0.324842,-0.18563 -0.185626,-0.41767 -0.278437,-0.27843 -0.417656,-0.13922 -0.09281,-0.23204 0.556874,-0.41764 0.510469,-0.64969 0.835313,-0.41767 0.464063,-0.32483 -0.278437,-0.37126 -0.464063,-0.0928 -0.278437,0.13923 -0.464063,0.37126 h -0.510469 l -0.37125,-0.46408 -0.139218,-0.37124 0.185623,-0.46408 0.464064,-0.13919 0.417655,-0.0928 0.510469,0.0928 0.417658,-0.23204 0.649687,-0.23204 0.603281,0.37126 0.324843,0.18563 h 0.185626 l 0.185624,-0.37126 -0.324842,-0.46405 -0.464064,-0.13923 -0.7425,0.0464 h -0.603282 l -0.139218,-0.37126 0.185626,-0.46405 0.37125,-0.37127 0.324842,-0.51046 -0.324842,-0.27845 -0.649689,-0.13919 -0.649687,-0.27845 -0.603282,-0.23204 -0.37125,0.55689 -0.371248,-0.23204 0.232029,-0.41767 0.64969,-0.23201 0.278437,-0.27845 0.324842,-0.37123 -0.09281,-0.32486 0.510468,-0.51046 0.510469,-0.41767 0.46406,-0.32483 0.324845,-0.0928 0.04641,0.46406 0.04641,0.83531 0.464064,0.18563 0.232029,-0.27844 -0.139219,-0.78891 -0.185624,-0.51046 -0.510468,-0.37124 -0.510469,-0.7425 V 280.665 l 0.556874,-0.18564 0.417655,0.18564 0.139222,0.64968 0.278437,0.69609 0.556873,0.32486 0.278437,-0.23204 -0.185623,-0.69609 -0.139219,-0.41765 0.185624,-0.23204 -0.04641,-1.25296 0.232031,-1.02095 0.185624,-1.29937 0.464063,-1.11376 0.04641,-0.83532 0.185627,-0.51046 0.185624,-0.46405 -0.417656,-0.78891 -0.556874,-0.0928 -0.417658,0.46405 -0.37125,0.46408 0.139219,0.8817 -0.278437,1.16017 -0.324842,0.64968 -0.742501,0.18563 -0.464063,-0.83531 0.232032,-1.11377 -0.04641,-0.64968 0.835313,-0.46405 0.37125,-0.41767 -0.278437,-0.6961 v -1.11373 l 0.232032,-0.7425 0.417655,-1.02095 0.371251,-1.06733 -0.09281,-1.11376 -0.278437,-1.39219 -0.139218,-1.02092 -0.139218,-1.11376 0.417655,-0.51047 0.696095,-1.06734 0.510468,-1.06735 0.324843,-1.11375 0.464063,-1.16015 0.278437,-1.20657 0.417658,-0.97453 0.278437,-1.02093 -0.232032,-0.60329 0.417655,-0.69609 0.232032,-2.13469 -0.09281,-1.76343 -0.185624,-0.83532 0.464063,-0.55687 0.556874,-0.64969 -0.7425,-1.29937 -0.232032,-0.88172 0.464064,-0.51047 0.324845,-0.18563 0.139218,-1.71703 0.417655,-0.78891 0.417656,-1.57781 0.278439,-1.20656 0.278437,-1.62422 -0.324845,-1.99547 -0.04641,-1.39218 0.556874,-1.29938 0.417658,-1.485 0.139218,-2.08828 -0.37125,-3.94453 0.881719,-1.06735 0.510469,-0.88171 0.556873,0.27843 0.464064,0.83532 -0.139219,0.97453 0.7425,0.88172 0.464061,0.37125 -0.278437,1.34578 -0.278437,0.92812 0.649687,0.78891 0.696095,0.78891 0.139219,0.83531 0.417655,0.7889 -0.185624,1.16016 1.206561,-0.0928 1.11375,-0.64969 0.835314,-1.16016 1.392187,0.55688 0.974532,0.13922 1.020937,0.64969 0.7425,-0.83532 0.417655,-0.41765 1.206564,0.13922 1.067342,0.69609 3.10922,2.92359 1.485,0.18563 1.299375,0.92812 2.088281,0.97453 1.438594,0.78891 -1.11375,1.25297 -0.324844,0.69609 -0.278438,1.11375 -0.371249,0.78891 3.990937,0.32484 1.206562,-0.32484 0.788907,-0.55688 1.252968,-1.02093 -0.04641,-1.71703 0.232031,-0.32485 0.7425,0.23203 0.7425,0.32485 0.09281,1.16015 -0.09281,1.16016 -1.949062,1.25297 -1.392187,0.92812 -4.037344,4.87266 -0.510469,2.08828 -0.278437,1.5314 -0.371251,1.90266 v 1.16016 l 0.510469,0.7425 -0.185625,0.46406 -0.881718,-0.13922 -0.324844,0.78891 0.556875,0.55687 0.788906,0.0928 0.835313,0.46406 0.464062,0.13922 -0.232031,0.7425 -0.09281,0.97453 0.696094,0.51047 0.649687,0.37125 -0.139218,0.92812 -0.974532,1.06735 -0.603281,1.11376 -1.020937,0.97451 -1.949063,0.69609 -1.995469,0.23204 -1.809844,0.0928 h -1.670624 l -0.510468,0.13922 0.37125,0.8817 0.139218,0.5569 -0.556876,0.69609 -0.185624,0.60327 0.324845,0.6961 -0.09281,0.64968 -0.835314,0.32486 -1.160155,0.37123 -1.020937,-0.13922 -0.928127,-0.51046 -0.928124,-0.23204 -0.278437,0.41767 0.04641,1.06733 0.232032,1.16017 0.417655,0.69609 0.696095,0.18564 0.649687,-0.18564 0.139219,-0.37126 0.696095,0.13922 0.278437,0.6961 -0.510469,0.60327 -0.928126,-0.0464 -0.556874,-0.18561 -0.37125,0.0464 0.232031,0.69609 0.278437,0.23201 -0.417655,0.37127 -0.696095,-0.0928 -0.603282,1.02095 0.232032,0.51046 -0.278437,0.88172 -0.37125,0.55687 -0.04641,0.60328 0.09281,0.51046 -1.531406,0.18563 -1.067342,0.64968 -0.7425,0.78891 -0.185627,0.83532 v 1.11376 l 0.649687,0.51046 1.252969,0.60328 h 0.974532 l 0.7425,0.13922 -0.510468,0.46406 -0.04641,1.16017 -0.278437,0.69609 -1.020939,0.51046 -1.020937,0.7425 -0.603282,0.83532 -0.510469,0.55686 v 0.97454 l -0.37125,0.88173 -1.11375,0.55687 -0.603279,0.27842 -0.510469,0.78891 -0.09281,0.97454 0.139219,0.97454 0.37125,0.60327 0.37125,0.64969 0.37125,0.41764 0.185624,0.5569 h -0.649687 l -0.603282,-0.27845 -0.928124,-0.0464 0.139218,0.55687 0.417656,0.23204 0.649689,0.18563 0.603279,0.18563 0.464064,0.27842 0.185626,0.32486 -0.510471,0.37124 -0.417655,0.37126 z"
       id="SA_ter4" /></g></svg>
