<?xml version="1.0" encoding="UTF-8" standalone="no"?>
<!-- Created with Inkscape (http://www.inkscape.org/) -->

<svg
   width="50.271328mm"
   height="51.846321mm"
   viewBox="0 0 50.271328 51.846321"
   version="1.1"
   id="svg1"
   xml:space="preserve"
   xmlns="http://www.w3.org/2000/svg"
   xmlns:svg="http://www.w3.org/2000/svg"><defs
     id="defs1" /><g
     id="layer3"
     transform="translate(64.972066,-192.35672)"><path
       style="fill:#000000;stroke-width:0.264583"
       d="m -44.299134,226.08966 c -3.412675,-2.55951 -10.566164,-6.89098 -10.566164,-6.89098 l -0.721913,-0.9188 -0.06563,-0.91879 -0.459398,-1.50946 -3.54393,-6.23469 -1.57508,-2.95327 -0.918798,-1.57508 -2.822019,-1.96885 0.06563,-0.4594 0.656286,0.13125 -0.131257,-0.78754 -0.525029,-1.64071 0.721913,-1.11568 0.459399,-0.72191 0.721913,-0.13126 0.393769,0.13126 -0.196885,0.59066 -0.131257,0.72191 0.06563,0.4594 0.721913,0.13125 0.328142,-0.0656 0.393769,0.39378 0.656285,0.52502 h 0.328142 l 1.50945,-2.88765 0.196887,-0.78754 1.115682,-0.13125 1.968849,-0.85317 0.787541,-0.78754 0.853167,-0.9188 0.196887,-0.9188 0.131255,-0.39377 v -0.72191 l -0.656283,-0.52502 1.837594,0.0656 0.393769,0.4594 0.196887,0.78754 0.262512,0.52503 h 0.393771 l 0.525026,0.19688 0.262514,0.65629 0.262512,0.4594 0.328144,0.78754 0.918795,0.59065 1.706337,-0.19688 0.787541,-0.32814 1.443823,0.13125 0.78754,0.13126 0.328142,0.78754 -0.721911,0.72191 -0.328141,0.85317 0.459399,0.59065 -1.443826,0.78754 -1.509451,0.39378 -1.115682,0.59065 -0.459398,0.65628 -0.656283,0.59066 -0.196885,0.72191 v 0.59066 l -0.262514,0.32814 -0.656283,0.32814 0.06563,1.18131 -0.196884,0.78754 0.72191,0.85317 0.328144,0.78754 v 0.85317 l 0.393769,0.72191 h 0.853167 0.459399 l -0.06563,0.59065 0.853167,0.19689 1.050055,0.26251 0.656283,-0.32814 0.393771,-0.52503 0.328142,0.26252 0.06563,1.11568 0.131257,0.72191 0.590656,0.59066 1.312566,-0.19689 1.312566,0.32814 0.853171,-0.26251 3.478302,-1.70634 2.034479,-0.4594 0.06563,1.70634 -0.06563,0.9188 0.78754,1.18131 1.050052,0.78754 0.85317,0.59065 1.181309,0.26252 0.918798,0.39377 0.590655,0.39377 0.525026,0.0656 0.656283,0.72192 1.050055,0.19688 0.72191,-0.0656 0.787541,0.52503 0.459398,1.24694 -0.196884,1.18131 0.06563,1.11568 0.525027,0.65628 0.721911,0.19689 0.984426,0.19688 0.984425,0.13126 0.06563,-0.13126 0.721912,1.77197 0.39377,0.39377 0.459399,0.78754 -0.328142,2.95327 -0.78754,0.32815 0.525026,0.59065 -0.196885,0.52503 0.131257,0.85317 0.262513,0.65628 -0.196885,0.85317 v 0.98443 l 0.459399,0.19688 1.18131,0.0656 1.115682,0.13125 0.918797,0.59066 0.06563,0.65628 0.196885,0.72192 0.656284,0.91879 0.328141,0.52503 0.525027,0.0656 0.459399,-0.26252 h 0.525026 l 0.328142,0.65629 -0.328142,1.05005 -0.328141,1.05006 0.06563,1.57508 -0.131257,0.72191 -0.262513,0.59065 -0.39377,0.78754 -0.984425,0.19689 -0.984425,0.32814 -0.984426,0.32814 -1.312567,-0.19689 -1.246938,-0.0656 -0.918797,-0.13126 0.131257,-0.85317 0.328141,-0.98442 0.525027,-0.78754 0.656284,-0.72191 0.262513,-0.59066 -0.656284,-0.32814 -1.050053,-0.52503 -1.115682,-0.59065 -0.78754,-0.52503 -1.18131,-0.65629 h -1.050054 l -0.853169,-0.45939 -0.984425,-0.9188 -1.246939,-1.11568 -0.984425,-1.05006 -1.050054,-0.52502 -1.050052,0.13126 -0.262514,1.31256 -0.656283,0.13126 -0.656283,-0.78754 -1.443824,-0.4594 -1.115681,-0.26251 -0.721913,0.45939 -0.656283,0.52503 -0.656283,0.59066 -0.918798,0.32814 -0.328141,-1.11568 -0.262515,-1.18131 v -0.78754 l -1.115681,-1.24694 -0.06563,-1.3782 0.393769,-0.85317 -1.312566,-1.44382 0.196884,-1.18131 -1.050054,-1.18131 -0.196885,0.98443 z"
       id="SA_ter2" /></g></svg>
